<svg width="17" height="17" viewBox="0 0 17 17" fill="none" xmlns="http://www.w3.org/2000/svg">
<path d="M8.26124 0.257413C8.61631 0.247096 8.92819 0.373476 9.18172 0.627005H9.18072C9.40069 0.831683 9.53074 1.08464 9.56734 1.37621L9.57735 1.50541C9.58767 1.86048 9.46029 2.17236 9.20676 2.42589L4.6194 7.01424H15.4618C15.7724 7.01428 16.0482 7.10807 16.2781 7.2967L16.3742 7.38283V7.38384C16.6207 7.63119 16.7438 7.94127 16.7438 8.2963C16.7437 8.65116 16.6209 8.96106 16.3742 9.20776C16.127 9.45492 15.817 9.57831 15.4618 9.57835H4.6194L9.20676 14.1657C9.41572 14.3747 9.53483 14.6334 9.56834 14.9289L9.57735 15.0571V15.0581C9.58728 15.4117 9.4654 15.7169 9.21377 15.9556C8.97479 16.2163 8.66617 16.3472 8.30732 16.3472C7.94906 16.3471 7.63603 16.2177 7.38283 15.9646L0.613984 9.19474C0.488485 9.06924 0.393084 8.9269 0.335538 8.76705L0.334536 8.76605C0.281749 8.61701 0.256454 8.45977 0.256411 8.2963C0.256411 8.13263 0.281674 7.97475 0.334536 7.82554L0.335538 7.82454C0.393085 7.66469 0.488486 7.52235 0.613984 7.39686L7.38283 0.627005C7.6198 0.390138 7.91792 0.268308 8.26024 0.257413H8.26124Z" fill="white" fill-opacity="0.8" stroke="#9C9A9F" stroke-width="0.5"/>
</svg>
