<svg width="16" height="16" viewBox="0 0 16 16" fill="none" xmlns="http://www.w3.org/2000/svg">
<path d="M8.38579 2.21782C8.53101 2.36304 8.60705 2.54786 8.61391 2.77228C8.62025 2.9967 8.55081 3.18152 8.40559 3.32673L4.52441 7.20792L13.3759 7.20792C13.6003 7.20792 13.7886 7.28396 13.9406 7.43604C14.0922 7.58759 14.168 7.77558 14.168 8C14.168 8.22442 14.0922 8.41267 13.9406 8.56475C13.7886 8.7163 13.6003 8.79208 13.3759 8.79208H4.52441L8.40559 12.6733C8.55081 12.8185 8.62025 13.0033 8.61391 13.2277C8.60705 13.4521 8.53101 13.637 8.38579 13.7822C8.24058 13.9274 8.05576 14 7.83134 14C7.60691 14 7.42209 13.9274 7.27688 13.7822L2.04916 8.55446C1.96995 8.48845 1.91371 8.40607 1.88044 8.30733C1.8477 8.20805 1.83134 8.10561 1.83134 8C1.83134 7.89439 1.8477 7.79538 1.88044 7.70297C1.91371 7.61056 1.96995 7.52475 2.04916 7.44555L7.27688 2.21782C7.42209 2.07261 7.60691 2 7.83134 2C8.05576 2 8.24058 2.07261 8.38579 2.21782Z" fill="#030207"/>
</svg>
