<svg width="15" height="16" viewBox="0 0 15 16" fill="none" xmlns="http://www.w3.org/2000/svg">
<g clip-path="url(#clip0_247_641)">
<path d="M1.6 16C1.16 16 0.7832 15.8435 0.4696 15.5304C0.156533 15.2168 0 14.84 0 14.4V3.2C0 2.76 0.156533 2.38347 0.4696 2.0704C0.7832 1.7568 1.16 1.6 1.6 1.6H2.4V0.78C2.4 0.553333 2.47653 0.366667 2.6296 0.22C2.7832 0.0733334 2.97333 0 3.2 0C3.42667 0 3.6168 0.0765333 3.7704 0.2296C3.92347 0.3832 4 0.573333 4 0.8V1.6H10.4V0.78C10.4 0.553333 10.4768 0.366667 10.6304 0.22C10.7835 0.0733334 10.9733 0 11.2 0C11.4267 0 11.6165 0.0765333 11.7696 0.2296C11.9232 0.3832 12 0.573333 12 0.8V1.6H12.8C13.24 1.6 13.6168 1.7568 13.9304 2.0704C14.2435 2.38347 14.4 2.76 14.4 3.2V14.4C14.4 14.84 14.2435 15.2168 13.9304 15.5304C13.6168 15.8435 13.24 16 12.8 16H1.6ZM1.6 14.4H12.8V6.4H1.6V14.4Z" fill="#C7AAFC"/>
</g>
<defs>
<clipPath id="clip0_247_641">
<rect width="14.4" height="16" fill="white"/>
</clipPath>
</defs>
</svg>
