<svg width="16" height="16" viewBox="0 0 16 16" fill="none" xmlns="http://www.w3.org/2000/svg">
<g clip-path="url(#clip0_247_626)">
<path d="M8 10.3913L2.92722 15.4783C2.60652 15.7971 2.19836 15.9565 1.70274 15.9565C1.20712 15.9565 0.798957 15.7971 0.478261 15.4783C0.15942 15.1594 0 14.7536 0 14.2609C0 13.7681 0.15942 13.3623 0.478261 13.0435L5.56522 7.95652L0.478261 2.9273C0.15942 2.60658 0 2.19841 0 1.70278C0 1.20713 0.15942 0.798957 0.478261 0.478261C0.797101 0.15942 1.2029 0 1.69565 0C2.18841 0 2.5942 0.15942 2.91304 0.478261L8 5.56522L13.0292 0.478261C13.3499 0.15942 13.7581 0 14.2537 0C14.7494 0 15.1576 0.15942 15.4783 0.478261C15.8261 0.826087 16 1.23913 16 1.71739C16 2.19565 15.8261 2.5942 15.4783 2.91304L10.3913 7.95652L15.4783 13.0293C15.7971 13.35 15.9565 13.7582 15.9565 14.2538C15.9565 14.7494 15.7971 15.1576 15.4783 15.4783C15.1304 15.8261 14.7174 16 14.2391 16C13.7609 16 13.3623 15.8261 13.0435 15.4783L8 10.3913Z" fill="#9C9A9F"/>
</g>
<defs>
<clipPath id="clip0_247_626">
<rect width="16" height="16" fill="white"/>
</clipPath>
</defs>
</svg>
