<svg width="20" height="20" viewBox="0 0 20 20" fill="none" xmlns="http://www.w3.org/2000/svg">
<path d="M14.1667 2.78332C15.4236 3.50904 16.4691 4.55043 17.1999 5.80441C17.9306 7.05839 18.3212 8.48147 18.3329 9.93277C18.3446 11.3841 17.9771 12.8133 17.2667 14.0789C16.5563 15.3445 15.5277 16.4027 14.2827 17.1486C13.0377 17.8945 11.6195 18.3023 10.1684 18.3317C8.71738 18.3611 7.28381 18.011 6.00965 17.316C4.73549 16.6211 3.66491 15.6054 2.90391 14.3696C2.14291 13.1337 1.71786 11.7206 1.67085 10.27L1.66669 9.99999L1.67085 9.72999C1.71752 8.29082 2.13631 6.88829 2.88639 5.65915C3.63646 4.43001 4.69223 3.4162 5.95076 2.71656C7.2093 2.01692 8.62764 1.65532 10.0675 1.66702C11.5074 1.67872 12.9197 2.06332 14.1667 2.78332ZM10 4.99999C9.79591 5.00002 9.59891 5.07496 9.44638 5.21059C9.29385 5.34622 9.1964 5.53312 9.17252 5.73583L9.16669 5.83333V9.99999L9.17419 10.1092C9.19319 10.2537 9.2498 10.3908 9.33835 10.5067L9.41085 10.59L11.9109 13.09L11.9892 13.1583C12.1353 13.2717 12.315 13.3333 12.5 13.3333C12.685 13.3333 12.8647 13.2717 13.0109 13.1583L13.0892 13.0892L13.1584 13.0108C13.2717 12.8647 13.3333 12.685 13.3333 12.5C13.3333 12.315 13.2717 12.1353 13.1584 11.9892L13.0892 11.9108L10.8334 9.65416V5.83333L10.8275 5.73583C10.8036 5.53312 10.7062 5.34622 10.5537 5.21059C10.4011 5.07496 10.2041 5.00002 10 4.99999Z" fill="#BFBFBF"/>
</svg>
