<svg width="20" height="20" viewBox="0 0 20 20" fill="none" xmlns="http://www.w3.org/2000/svg">
<path d="M19.9999 16.131C19.9999 16.3299 19.9209 16.5206 19.7802 16.6613C19.6396 16.8019 19.4488 16.881 19.2499 16.881H14.1499C13.9829 17.5038 13.615 18.0542 13.1033 18.4467C12.5917 18.8392 11.9648 19.052 11.3199 19.052C10.675 19.052 10.0482 18.8392 9.53652 18.4467C9.02486 18.0542 8.65699 17.5038 8.48995 16.881H0.749995C0.551084 16.881 0.36032 16.8019 0.219668 16.6613C0.0790171 16.5206 0 16.3299 0 16.131C0 15.932 0.0790171 15.7413 0.219668 15.6006C0.36032 15.46 0.551084 15.381 0.749995 15.381H8.48995C8.65699 14.7581 9.02486 14.2077 9.53652 13.8152C10.0482 13.4227 10.675 13.2099 11.3199 13.2099C11.9648 13.2099 12.5917 13.4227 13.1033 13.8152C13.615 14.2077 13.9829 14.7581 14.1499 15.381H19.2499C19.4488 15.381 19.6396 15.46 19.7802 15.6006C19.9209 15.7413 19.9999 15.932 19.9999 16.131ZM19.9999 2.92104C19.9999 3.11995 19.9209 3.31071 19.7802 3.45136C19.6396 3.59201 19.4488 3.67103 19.2499 3.67103H16.7999C16.6329 4.2939 16.265 4.84427 15.7533 5.23679C15.2417 5.62932 14.6148 5.84207 13.9699 5.84207C13.325 5.84207 12.6982 5.62932 12.1865 5.23679C11.6748 4.84427 11.307 4.2939 11.1399 3.67103H0.749995C0.651505 3.67103 0.553978 3.65163 0.462985 3.61394C0.371991 3.57625 0.289312 3.52101 0.219668 3.45136C0.150025 3.38172 0.0947807 3.29904 0.0570899 3.20805C0.0193991 3.11705 0 3.01953 0 2.92104C0 2.82254 0.0193991 2.72502 0.0570899 2.63402C0.0947807 2.54303 0.150025 2.46035 0.219668 2.39071C0.289312 2.32107 0.371991 2.26582 0.462985 2.22813C0.553978 2.19044 0.651505 2.17104 0.749995 2.17104H11.1399C11.307 1.54817 11.6748 0.997804 12.1865 0.60528C12.6982 0.212756 13.325 0 13.9699 0C14.6148 0 15.2417 0.212756 15.7533 0.60528C16.265 0.997804 16.6329 1.54817 16.7999 2.17104H19.2499C19.3487 2.1697 19.4469 2.18818 19.5385 2.22539C19.6301 2.2626 19.7133 2.3178 19.7832 2.38771C19.8531 2.45762 19.9083 2.54084 19.9455 2.63244C19.9827 2.72404 20.0012 2.82217 19.9999 2.92104ZM19.9999 9.521C20.0012 9.61986 19.9827 9.71799 19.9455 9.80959C19.9083 9.90119 19.8531 9.98441 19.7832 10.0543C19.7133 10.1242 19.6301 10.1794 19.5385 10.2166C19.4469 10.2539 19.3487 10.2723 19.2499 10.271H7.54995C7.38291 10.8939 7.01504 11.4442 6.50338 11.8368C5.99172 12.2293 5.36485 12.442 4.71997 12.442C4.07509 12.442 3.44822 12.2293 2.93656 11.8368C2.4249 11.4442 2.05703 10.8939 1.88999 10.271H0.749995C0.551084 10.271 0.36032 10.192 0.219668 10.0513C0.0790171 9.91067 0 9.71991 0 9.521C0 9.32208 0.0790171 9.13132 0.219668 8.99067C0.36032 8.85002 0.551084 8.771 0.749995 8.771H1.88999C2.05703 8.14813 2.4249 7.59776 2.93656 7.20524C3.44822 6.81271 4.07509 6.59996 4.71997 6.59996C5.36485 6.59996 5.99172 6.81271 6.50338 7.20524C7.01504 7.59776 7.38291 8.14813 7.54995 8.771H19.2499C19.4488 8.771 19.6396 8.85002 19.7802 8.99067C19.9209 9.13132 19.9999 9.32208 19.9999 9.521Z" fill="#9C9A9F"/>
</svg>
