<svg width="16" height="16" viewBox="0 0 16 16" fill="none" xmlns="http://www.w3.org/2000/svg">
<path d="M14.6467 6.31332C14.646 6.46232 14.5988 6.60739 14.5115 6.72815C14.4242 6.84891 14.3013 6.93931 14.16 6.98665L12.9067 7.39999C12.5132 7.53157 12.1558 7.75315 11.863 8.04711C11.5702 8.34108 11.35 8.69931 11.22 9.09332L10.7867 10.34C10.7369 10.4791 10.6463 10.5999 10.5267 10.6867C10.436 10.7519 10.3312 10.7948 10.2208 10.8117C10.1103 10.8287 9.99747 10.8192 9.89143 10.784C9.78539 10.7489 9.68918 10.6891 9.61071 10.6096C9.53224 10.5301 9.47373 10.4331 9.43999 10.3267L9.01999 9.07332C8.88455 8.67813 8.65587 8.32139 8.35333 8.03332C8.06078 7.73304 7.70247 7.50482 7.30666 7.36665L6.05333 6.94665C5.9114 6.90198 5.7874 6.81324 5.69933 6.69332C5.61293 6.57156 5.56651 6.42595 5.56651 6.27665C5.56651 6.12735 5.61293 5.98175 5.69933 5.85999C5.78793 5.73655 5.91429 5.64528 6.05933 5.59999L7.30599 5.17999C7.70723 5.04505 8.07058 4.81653 8.36599 4.51332C8.66599 4.21799 8.89466 3.85732 9.03266 3.45999L9.44599 2.22665C9.48508 2.08574 9.56941 1.96159 9.68599 1.87332C9.80329 1.77921 9.94895 1.72753 10.0993 1.72665C10.2483 1.72306 10.3948 1.76492 10.5193 1.84665C10.646 1.92613 10.7423 2.04587 10.7927 2.18665L11.2127 3.45999C11.3507 3.85732 11.5793 4.21799 11.8793 4.51332C12.1728 4.81564 12.5338 5.0441 12.9327 5.17999L14.1793 5.61999C14.3197 5.66389 14.4415 5.75296 14.526 5.87332C14.6127 6.00265 14.656 6.15665 14.6467 6.31332ZM8.06666 10.9333C8.06634 11.0693 8.02447 11.2019 7.94666 11.3133C7.86609 11.4217 7.7545 11.5031 7.62666 11.5467L6.72666 11.8467C6.47451 11.9356 6.24634 12.0816 6.05999 12.2733C5.87007 12.4611 5.72432 12.6889 5.63333 12.94L5.31999 13.8333C5.27643 13.9612 5.19506 14.0728 5.08666 14.1533C4.9744 14.2322 4.84054 14.2746 4.70333 14.2746C4.56612 14.2746 4.43225 14.2322 4.31999 14.1533C4.2116 14.0728 4.13023 13.9612 4.08666 13.8333L3.79333 12.94C3.70214 12.6888 3.55616 12.4611 3.36599 12.2733C3.17818 12.0834 2.95045 11.9377 2.69933 11.8467L1.79933 11.5533C1.67061 11.508 1.55891 11.4242 1.47933 11.3133C1.39915 11.2026 1.35493 11.07 1.35266 10.9333C1.35506 10.7958 1.39991 10.6625 1.48107 10.5515C1.56223 10.4405 1.67572 10.3573 1.80599 10.3133L2.69933 10.02C2.94954 9.92721 3.17676 9.78148 3.36546 9.59278C3.55416 9.40409 3.69988 9.17686 3.79266 8.92665L4.09266 8.04665C4.13261 7.92052 4.2092 7.80913 4.31266 7.72665C4.42082 7.64426 4.5516 7.5969 4.68744 7.59094C4.82328 7.58499 4.9577 7.62071 5.07266 7.69332C5.18666 7.77199 5.27466 7.88332 5.32599 8.01332L5.62599 8.92665C5.71878 9.17686 5.8645 9.40409 6.0532 9.59278C6.24189 9.78148 6.46912 9.92721 6.71933 10.02L7.61266 10.3333C7.74021 10.374 7.8505 10.4561 7.92599 10.5667C8.01072 10.6707 8.05979 10.7993 8.06599 10.9333" fill="#FEFEFF"/>
</svg>
