<svg width="20" height="22" viewBox="0 0 20 22" fill="none" xmlns="http://www.w3.org/2000/svg">
<path d="M2.875 4C2.37772 4 1.90081 4.19754 1.54917 4.54917C1.19754 4.90081 1 5.37772 1 5.875V12.125C1 12.6223 1.19754 13.0992 1.54917 13.4508C1.90081 13.8025 2.37772 14 2.875 14H11.625C12.1223 14 12.5992 13.8025 12.9508 13.4508C13.3025 13.0992 13.5 12.6223 13.5 12.125V5.875C13.5 5.37772 13.3025 4.90081 12.9508 4.54917C12.5992 4.19754 12.1223 4 11.625 4H2.875ZM6.10625 17.75C6.23555 18.1157 6.4751 18.4323 6.79189 18.6562C7.10867 18.8801 7.48709 19.0002 7.875 19H11.625C12.5278 19 13.4218 18.8222 14.2559 18.4767C15.0901 18.1312 15.848 17.6248 16.4864 16.9864C17.1248 16.348 17.6312 15.5901 17.9767 14.7559C18.3222 13.9218 18.5 13.0278 18.5 12.125V10.875C18.5002 10.4871 18.3801 10.1087 18.1562 9.79189C17.9323 9.4751 17.6157 9.23555 17.25 9.10625V12.125C17.25 13.6168 16.6574 15.0476 15.6025 16.1025C14.5476 17.1574 13.1168 17.75 11.625 17.75H6.10625ZM5.375 16.5C4.98709 16.5002 4.60867 16.3801 4.29189 16.1562C3.9751 15.9323 3.73555 15.6157 3.60625 15.25H11.625C12.0354 15.25 12.4417 15.1692 12.8209 15.0121C13.2 14.8551 13.5445 14.6249 13.8347 14.3347C14.1249 14.0445 14.3551 13.7 14.5121 13.3209C14.6692 12.9417 14.75 12.5354 14.75 12.125V6.60625C15.1157 6.73555 15.4323 6.9751 15.6562 7.29189C15.8801 7.60867 16.0002 7.98709 16 8.375V12.125C16 13.2853 15.5391 14.3981 14.7186 15.2186C13.8981 16.0391 12.7853 16.5 11.625 16.5H5.375Z" fill="#BFBFBF"/>
</svg>
