<svg width="20" height="20" viewBox="0 0 20 20" fill="none" xmlns="http://www.w3.org/2000/svg">
<path d="M10 1.66663C14.6025 1.66663 18.3334 5.39746 18.3334 9.99996C18.3334 14.6025 14.6025 18.3333 10 18.3333C5.39752 18.3333 1.66669 14.6025 1.66669 9.99996C1.66669 5.39746 5.39752 1.66663 10 1.66663ZM13.5359 6.46413C13.2409 6.16996 9.41085 7.05329 8.23252 8.23246C7.05419 9.41079 6.17002 13.2408 6.46419 13.5358C6.75919 13.83 10.5892 12.9466 11.7675 11.7675C12.9467 10.5891 13.83 6.75913 13.5359 6.46413ZM10 9.16663C10.221 9.16663 10.433 9.25442 10.5893 9.4107C10.7456 9.56698 10.8334 9.77894 10.8334 9.99996C10.8334 10.221 10.7456 10.4329 10.5893 10.5892C10.433 10.7455 10.221 10.8333 10 10.8333C9.77901 10.8333 9.56705 10.7455 9.41076 10.5892C9.25448 10.4329 9.16669 10.221 9.16669 9.99996C9.16669 9.77894 9.25448 9.56698 9.41076 9.4107C9.56705 9.25442 9.77901 9.16663 10 9.16663Z" fill="#BFBFBF"/>
</svg>
