<svg width="59" height="59" viewBox="0 0 59 59" fill="none" xmlns="http://www.w3.org/2000/svg">
<path d="M54.719 23.9749C54.719 -5.73401 5.37598 -10.1723 3.1564 23.9749C3.1564 33.5365 -0.600248 37.122 0.0831284 43.9511C0.424603 51.1222 3.72355 53.8716 10.6688 54.5368C14.8936 54.2057 17.1486 54.7166 20.7423 56.7563C27.3291 59.6847 31.2183 59.8107 37.8161 56.7563C41.743 54.964 41.0379 54.6037 47.3773 54.5368C53.7498 53.8245 57.7923 50.0978 58.1338 43.9511C57.7923 36.0973 55.5727 39.5121 54.719 23.9749Z" fill="#C6A9FB"/>
<mask id="mask0_1332_7023" style="mask-type:alpha" maskUnits="userSpaceOnUse" x="0" y="-1" width="59" height="60">
<path d="M54.719 23.9739C54.719 -5.73498 5.37598 -10.1733 3.1564 23.9739C3.1564 33.5356 -0.600248 37.121 0.0831284 43.9501C0.424603 51.1212 3.72355 53.8706 10.6688 54.5358C14.8936 54.2047 17.1486 54.7157 20.7423 56.7554C27.3291 59.6837 31.2183 59.8098 37.8161 56.7554C41.743 54.963 41.0379 54.6027 47.3773 54.5358C53.7498 53.8235 57.7923 50.0968 58.1338 43.9501C57.7923 36.0964 55.5727 39.5111 54.719 23.9739Z" fill="#C6A9FB"/>
</mask>
<g mask="url(#mask0_1332_7023)">
<path d="M5.36072 36.2472L3.82385 36.8744C-5.51027 40.6836 -11.6111 49.7625 -11.6111 59.844C-11.6111 73.5454 -0.503914 84.6526 13.1975 84.6526H255.716C269.131 84.6526 280.006 73.7774 280.006 60.3623C280.006 50.062 273.51 40.8817 263.796 37.4554L259.186 35.8294C251.763 33.211 243.625 33.4954 236.402 36.6255L234.808 37.3165C226.154 41.0671 216.366 41.2329 207.59 37.7776L206.486 37.343C197.381 33.758 187.242 33.8338 178.191 37.5545C169.401 41.1678 159.575 41.3472 150.659 38.057L148.431 37.2347C138.866 33.7049 128.34 33.7996 118.839 37.5009C109.452 41.1584 99.0574 41.2955 89.5764 37.8867L87.2641 37.0553C77.7384 33.6304 67.3154 33.6411 57.7968 37.0856L53.371 38.6872C45.4301 41.5607 36.6752 41.1788 29.0147 37.6245L27.1488 36.7588C20.2726 33.5684 12.379 33.3831 5.36072 36.2472Z" fill="#8C70EC"/>
</g>
<path d="M22.8796 24.5807C22.8796 24.4019 23.038 24.2641 23.2153 24.2867C27.7574 24.8646 30.4261 24.8615 34.838 24.2875C35.0143 24.2645 35.1719 24.4014 35.1719 24.5791C35.1719 24.6447 35.1495 24.7089 35.1091 24.7606C31.5658 29.2877 28.715 32.3265 22.9417 24.7619C22.9025 24.7106 22.8796 24.6453 22.8796 24.5807Z" fill="black"/>
<circle cx="20.1463" cy="19.4617" r="2.04855" fill="black"/>
<circle cx="38.9252" cy="19.4615" r="2.04855" fill="black"/>
<mask id="mask1_1332_7023" style="mask-type:alpha" maskUnits="userSpaceOnUse" x="22" y="24" width="14" height="6">
<path d="M22.8757 24.579C22.8757 24.4002 23.0341 24.2624 23.2114 24.285C27.7535 24.8629 30.4222 24.8598 34.8341 24.2858C35.0104 24.2628 35.168 24.3997 35.168 24.5774C35.168 24.643 35.1456 24.7072 35.1052 24.7589C31.5619 29.286 28.711 32.3248 22.9378 24.7602C22.8986 24.7089 22.8757 24.6436 22.8757 24.579Z" fill="black"/>
</mask>
<g mask="url(#mask1_1332_7023)">
<ellipse cx="31.0906" cy="27.253" rx="3.07283" ry="1.53641" transform="rotate(-24.4194 31.0906 27.253)" fill="#7448C4"/>
</g>
</svg>
