<svg width="59" height="59" viewBox="0 0 59 59" fill="none" xmlns="http://www.w3.org/2000/svg">
<path d="M54.7188 23.9748C54.7188 -5.73398 5.37596 -10.1723 3.15638 23.9748C3.15638 33.5364 -0.600246 37.1219 0.083128 43.9509C0.424601 51.122 3.72353 53.8713 10.6688 54.5365C14.8935 54.2054 17.1486 54.7164 20.7422 56.7561C27.329 59.6844 31.2181 59.8105 37.8159 56.7561C41.7428 54.9638 41.0378 54.6035 47.3771 54.5365C53.7496 53.8242 57.7921 50.0976 58.1335 43.9509C57.7921 36.0972 55.5725 39.5119 54.7188 23.9748Z" fill="#C6A9FB"/>
<mask id="mask0_698_8373" style="mask-type:alpha" maskUnits="userSpaceOnUse" x="0" y="-1" width="59" height="60">
<path d="M54.7193 23.9738C54.7193 -5.73496 5.37645 -10.1732 3.15687 23.9738C3.15687 33.5354 -0.599756 37.1209 0.0836174 43.9499C0.42509 51.121 3.72402 53.8704 10.6693 54.5356C14.894 54.2045 17.1491 54.7154 20.7427 56.7551C27.3295 59.6835 31.2186 59.8095 37.8164 56.7551C41.7433 54.9628 41.0383 54.6025 47.3776 54.5356C53.7501 53.8233 57.7925 50.0966 58.134 43.9499C57.7925 36.0962 55.573 39.511 54.7193 23.9738Z" fill="#C6A9FB"/>
</mask>
<g mask="url(#mask0_698_8373)">
<path d="M5.36193 36.2473L3.82506 36.8745C-5.50903 40.6837 -11.6098 49.7626 -11.6098 59.844C-11.6098 73.5453 -0.502689 84.6525 13.1987 84.6525H255.716C269.131 84.6525 280.006 73.7774 280.006 60.3623C280.006 50.0621 273.51 40.8818 263.796 37.4555L259.186 35.8295C251.763 33.2111 243.625 33.4955 236.403 36.6256L234.808 37.3166C226.155 41.0672 216.367 41.233 207.591 37.7777L206.487 37.343C197.381 33.7581 187.242 33.8339 178.192 37.5545C169.402 41.1679 159.576 41.3473 150.66 38.0571L148.432 37.2348C138.867 33.705 128.34 33.7997 118.84 37.501C109.452 41.1585 99.0582 41.2955 89.5772 37.8867L87.265 37.0554C77.7393 33.6305 67.3163 33.6412 57.7977 37.0857L53.372 38.6872C45.4311 41.5608 36.6762 41.1788 29.0158 37.6246L27.1499 36.7589C20.2738 33.5685 12.3802 33.3832 5.36193 36.2473Z" fill="#8C70EC"/>
</g>
<path d="M22.8788 24.5806C22.8788 24.4018 23.0372 24.264 23.2145 24.2866C27.7566 24.8645 30.4252 24.8614 34.8371 24.2874C35.0134 24.2644 35.171 24.4013 35.171 24.579C35.171 24.6446 35.1487 24.7088 35.1082 24.7605C31.565 29.2876 28.7141 32.3264 22.9409 24.7618C22.9017 24.7105 22.8788 24.6452 22.8788 24.5806Z" fill="black"/>
<circle cx="20.1472" cy="19.4616" r="2.04854" fill="black"/>
<circle cx="38.9265" cy="19.4616" r="2.04854" fill="black"/>
<mask id="mask1_698_8373" style="mask-type:alpha" maskUnits="userSpaceOnUse" x="22" y="24" width="14" height="6">
<path d="M22.8775 24.5787C22.8775 24.3999 23.0359 24.2621 23.2133 24.2846C27.7553 24.8625 30.424 24.8594 34.8359 24.2854C35.0122 24.2625 35.1698 24.3993 35.1698 24.577C35.1698 24.6426 35.1474 24.7069 35.107 24.7585C31.5637 29.2856 28.7129 32.3244 22.9397 24.7599C22.9005 24.7085 22.8775 24.6433 22.8775 24.5787Z" fill="black"/>
</mask>
<g mask="url(#mask1_698_8373)">
<ellipse cx="31.092" cy="27.2526" rx="3.07281" ry="1.53641" transform="rotate(-24.4194 31.092 27.2526)" fill="#7448C4"/>
</g>
</svg>
