<svg width="78" height="79" viewBox="0 0 78 79" fill="none" xmlns="http://www.w3.org/2000/svg">
<path d="M73.2675 32.1018C73.2675 -7.6777 7.19832 -13.6205 4.22635 32.1018C4.22635 44.9047 -0.803719 49.7055 0.111307 58.8495C0.568534 68.4515 4.98575 72.1328 14.2853 73.0235C19.9422 72.5802 22.9617 73.2643 27.7735 75.9955C36.5931 79.9165 41.8005 80.0852 50.6348 75.9955C55.893 73.5955 54.9489 73.1131 63.4372 73.0235C71.9698 72.0697 77.3826 67.0798 77.8398 58.8495C77.3826 48.3335 74.4106 52.9058 73.2675 32.1018Z" fill="#C6A9FB"/>
<mask id="mask0_690_8260" style="mask-type:alpha" maskUnits="userSpaceOnUse" x="0" y="-1" width="78" height="80">
<path d="M73.2682 32.1008C73.2682 -7.67868 7.19893 -13.6215 4.22696 32.1008C4.22696 44.9037 -0.803105 49.7046 0.11192 58.8485C0.569147 68.4505 4.98636 72.1318 14.2859 73.0225C19.9428 72.5792 22.9623 73.2634 27.7741 75.9945C36.5937 79.9155 41.8012 80.0842 50.6355 75.9945C55.8936 73.5945 54.9495 73.1121 63.4378 73.0225C71.9704 72.0687 77.3832 67.0788 77.8404 58.8485C77.3832 48.3325 74.4112 52.9048 73.2682 32.1008Z" fill="#C6A9FB"/>
</mask>
<g mask="url(#mask0_690_8260)">
<path d="M7.18001 48.5345L5.12217 49.3743C-7.37611 54.4747 -15.545 66.6313 -15.545 80.1302C-15.545 98.4762 -0.672623 113.349 17.6734 113.349H342.402C360.365 113.349 374.927 98.787 374.927 80.8243C374.927 67.0323 366.228 54.74 353.221 50.1522L347.049 47.975C337.11 44.4691 326.212 44.8498 316.542 49.041L314.407 49.9663C302.82 54.9882 289.714 55.2102 277.963 50.5837L276.485 50.0017C264.293 45.2014 250.717 45.3029 238.598 50.2848C226.828 55.1231 213.671 55.3633 201.733 50.9578L198.749 49.8568C185.942 45.1304 171.847 45.2571 159.127 50.2131C146.556 55.1105 132.639 55.294 119.944 50.7297L116.848 49.6165C104.093 45.0306 90.1365 45.045 77.3912 49.6571L71.4652 51.8015C60.8324 55.6492 49.1097 55.1377 38.8524 50.3786L36.3539 49.2195C27.1468 44.9476 16.5774 44.6995 7.18001 48.5345Z" fill="#8C70EC"/>
</g>
<path d="M30.6343 32.9132C30.6343 32.6739 30.8464 32.4893 31.0839 32.5195C37.166 33.2934 40.7395 33.2892 46.6474 32.5206C46.8834 32.4899 47.0945 32.6731 47.0945 32.9111C47.0945 32.9989 47.0645 33.0849 47.0104 33.1541C42.2657 39.2162 38.4482 43.2853 30.7175 33.1559C30.665 33.0872 30.6343 32.9997 30.6343 32.9132Z" fill="black"/>
<circle cx="26.9772" cy="26.0597" r="2.74336" fill="black"/>
<circle cx="52.1229" cy="26.0597" r="2.74336" fill="black"/>
<mask id="mask1_690_8260" style="mask-type:alpha" maskUnits="userSpaceOnUse" x="30" y="32" width="18" height="8">
<path d="M30.6327 32.9113C30.6327 32.6719 30.8449 32.4874 31.0823 32.5176C37.1644 33.2914 40.738 33.2873 46.6458 32.5186C46.8818 32.4879 47.0929 32.6711 47.0929 32.9091C47.0929 32.9969 47.0629 33.083 47.0088 33.1521C42.2641 39.2142 38.4466 43.2833 30.7159 33.154C30.6634 33.0852 30.6327 32.9978 30.6327 32.9113Z" fill="black"/>
</mask>
<g mask="url(#mask1_690_8260)">
<ellipse cx="41.6326" cy="36.492" rx="4.11504" ry="2.05752" transform="rotate(-24.4194 41.6326 36.492)" fill="#7448C4"/>
</g>
</svg>
