<svg width="24" height="24" viewBox="0 0 24 24" fill="none" xmlns="http://www.w3.org/2000/svg">
<path d="M24 12C24 12.9468 23.2325 13.7143 22.2857 13.7143H15.7143C14.6097 13.7143 13.7143 14.6097 13.7143 15.7143V22.2857C13.7143 23.2325 12.9468 24 12 24C11.0532 24 10.2857 23.2325 10.2857 22.2857V15.7143C10.2857 14.6097 9.39028 13.7143 8.28571 13.7143H1.71429C0.767513 13.7143 0 12.9468 0 12C0 11.0532 0.767512 10.2857 1.71429 10.2857H8.28571C9.39028 10.2857 10.2857 9.39028 10.2857 8.28571V1.71429C10.2857 0.767513 11.0532 0 12 0C12.9468 0 13.7143 0.767512 13.7143 1.71429V8.28571C13.7143 9.39028 14.6097 10.2857 15.7143 10.2857H22.2857C23.2325 10.2857 24 11.0532 24 12Z" fill="white"/>
</svg>
