<svg width="24" height="24" viewBox="0 0 24 24" fill="none" xmlns="http://www.w3.org/2000/svg">
<path d="M9.172 5C9.96758 5.00017 10.7305 5.31635 11.293 5.879L17.003 11.589C17.6424 12.2285 18.0015 13.0957 18.0015 14C18.0015 14.9043 17.6424 15.7715 17.003 16.411L13.411 20.003C12.7715 20.6424 11.9043 21.0015 11 21.0015C10.0957 21.0015 9.22848 20.6424 8.589 20.003L2.879 14.293C2.31635 13.7305 2.00017 12.9676 2 12.172V8C2 7.20435 2.31607 6.44129 2.87868 5.87868C3.44129 5.31607 4.20435 5 5 5H9.172ZM7 9H6.99C6.72478 9.00133 6.47096 9.10795 6.28436 9.29643C6.09776 9.4849 5.99367 9.73978 5.995 10.005C5.99633 10.2702 6.10295 10.524 6.29143 10.7106C6.4799 10.8972 6.73478 11.0013 7 11C7.26522 11 7.51957 10.8946 7.70711 10.7071C7.89464 10.5196 8 10.2652 8 10C8 9.73478 7.89464 9.48043 7.70711 9.29289C7.51957 9.10536 7.26522 9 7 9Z" fill="#BFBFBF"/>
<path d="M14.293 5.29303C14.4805 5.10556 14.7348 5.00024 15 5.00024C15.2652 5.00024 15.5195 5.10556 15.707 5.29303L20.3 9.88503C21.3912 10.9765 22.0043 12.4566 22.0043 14C22.0043 15.5434 21.3912 17.0236 20.3 18.115L18.708 19.707C18.5194 19.8892 18.2668 19.99 18.0046 19.9877C17.7424 19.9854 17.4916 19.8803 17.3062 19.6948C17.1208 19.5094 17.0156 19.2586 17.0133 18.9964C17.0111 18.7342 17.1119 18.4816 17.294 18.293L18.886 16.701C19.6023 15.9847 20.0047 15.0131 20.0047 14C20.0047 12.987 19.6023 12.0154 18.886 11.299L14.294 6.70703C14.1065 6.5195 14.0012 6.26519 14.0012 6.00003C14.0012 5.73487 14.1055 5.48056 14.293 5.29303Z" fill="#BFBFBF"/>
</svg>
